<svg xmlns="http://www.w3.org/2000/svg" version="1.1" viewBox="0.00 0.00 34.00 33.00" width="34.00" height="33.00">
<path stroke="#742052" stroke-width="2.00" fill="none" stroke-linecap="butt" d="&#10;  M 30.37 16.98&#10;  L 9.91 28.80"/>
<path fill="#1e1e1e" d="&#10;  M 30.37 16.98&#10;  L 9.91 28.80&#10;  Q 9.08 29.50 8.47 29.48&#10;  Q 8.00 29.46 8.00 28.99&#10;  L 8.00 2.80&#10;  A 0.38 0.38 0.0 0 1 8.57 2.47&#10;  L 31.23 15.56&#10;  A 0.54 0.54 0.0 0 1 31.42 16.32&#10;  Q 31.14 16.75 30.37 16.98&#10;  Z"/>
<path fill="#c92186" d="&#10;  M 30.37 16.98&#10;  L 33.28 18.77&#10;  Q 33.82 19.10 33.27 19.43&#10;  L 10.67 32.48&#10;  Q 10.10 32.81 10.07 32.16&#10;  L 9.91 28.80&#10;  L 30.37 16.98&#10;  Z"/>
</svg>